# Blender v2.81 (sub 16) OBJ File: ''
# www.blender.org
mtllib bullet.mtl
o Cylinder
v 0.000000 -0.010000 0.015000
v 0.000000 -0.010000 -0.015000
v 0.007071 -0.007071 0.015000
v 0.007071 -0.007071 -0.015000
v 0.010000 0.000000 0.015000
v 0.010000 -0.000000 -0.015000
v 0.007071 0.007071 0.015000
v 0.007071 0.007071 -0.015000
v -0.000000 0.010000 0.015000
v -0.000000 0.010000 -0.015000
v -0.007071 0.007071 0.015000
v -0.007071 0.007071 -0.015000
v -0.010000 0.000000 0.015000
v -0.010000 -0.000000 -0.015000
v -0.007071 -0.007071 0.015000
v -0.007071 -0.007071 -0.015000
v -0.000000 0.010029 0.014621
v 0.007071 0.007100 0.014621
v 0.010000 0.000029 0.014621
v 0.007071 -0.007042 0.014621
v -0.000000 -0.009971 0.014621
v -0.007071 -0.007042 0.014621
v -0.010000 0.000029 0.014621
v -0.000000 0.000029 0.033316
v -0.007071 0.007100 0.014621
vt 1.000000 0.500000
vt 1.000000 1.000000
vt 0.875000 1.000000
vt 0.875000 0.500000
vt 0.750000 1.000000
vt 0.750000 0.500000
vt 0.625000 1.000000
vt 0.625000 0.500000
vt 0.500000 1.000000
vt 0.500000 0.500000
vt 0.375000 1.000000
vt 0.375000 0.500000
vt 0.250000 1.000000
vt 0.250000 0.500000
vt 0.419706 0.419706
vt 0.250000 0.490000
vt 0.080294 0.419706
vt 0.010000 0.250000
vt 0.080294 0.080294
vt 0.250000 0.010000
vt 0.419706 0.080294
vt 0.490000 0.250000
vt 0.125000 1.000000
vt 0.125000 0.500000
vt 0.000000 1.000000
vt 0.000000 0.500000
vt 0.750000 0.490000
vt 0.919706 0.419706
vt 0.990000 0.250000
vt 0.919706 0.080294
vt 0.750000 0.010000
vt 0.580294 0.080294
vt 0.510000 0.250000
vt 0.580294 0.419706
vt 0.250000 0.490000
vt 0.250000 0.250000
vt 0.419706 0.419706
vt 0.490000 0.250000
vt 0.419706 0.080294
vt 0.250000 0.010000
vt 0.080294 0.080294
vt 0.010000 0.250000
vt 0.080294 0.419706
vt 0.750000 0.490000
vt 0.919706 0.419706
vt 0.990000 0.250000
vt 0.919706 0.080294
vt 0.750000 0.010000
vt 0.580294 0.080294
vt 0.510000 0.250000
vt 0.580294 0.419706
vn 0.3827 -0.9239 0.0000
vn 0.9239 -0.3827 0.0000
vn 0.9239 0.3827 -0.0000
vn 0.3827 0.9239 -0.0000
vn -0.3827 0.9239 -0.0000
vn -0.9239 0.3827 -0.0000
vn -0.0000 0.0000 -1.0000
vn -0.9239 -0.3827 0.0000
vn -0.3827 -0.9239 0.0000
vn 0.0000 0.0000 1.0000
vn 0.3431 0.8283 0.4430
vn 0.8283 0.3431 0.4430
vn 0.8283 -0.3431 0.4430
vn 0.3431 -0.8283 0.4430
vn -0.3431 -0.8283 0.4430
vn -0.8283 -0.3431 0.4430
vn -0.8283 0.3431 0.4430
vn -0.3431 0.8283 0.4430
usemtl None
s off
f 1/1/1 2/2/1 4/3/1 3/4/1
f 3/4/2 4/3/2 6/5/2 5/6/2
f 5/6/3 6/5/3 8/7/3 7/8/3
f 7/8/4 8/7/4 10/9/4 9/10/4
f 9/10/5 10/9/5 12/11/5 11/12/5
f 11/12/6 12/11/6 14/13/6 13/14/6
f 4/15/7 2/16/7 16/17/7 14/18/7 12/19/7 10/20/7 8/21/7 6/22/7
f 13/14/8 14/13/8 16/23/8 15/24/8
f 15/24/9 16/23/9 2/25/9 1/26/9
f 1/27/10 3/28/10 5/29/10 7/30/10 9/31/10 11/32/10 13/33/10 15/34/10
f 17/35/11 24/36/11 18/37/11
f 18/37/12 24/36/12 19/38/12
f 19/38/13 24/36/13 20/39/13
f 20/39/14 24/36/14 21/40/14
f 21/40/15 24/36/15 22/41/15
f 22/41/16 24/36/16 23/42/16
f 23/42/17 24/36/17 25/43/17
f 25/43/18 24/36/18 17/35/18
f 17/44/7 18/45/7 19/46/7 20/47/7 21/48/7 22/49/7 23/50/7 25/51/7
