# Blender v2.81 (sub 16) OBJ File: ''
# www.blender.org
mtllib medTent.mtl
o Cube
v 3.349505 2.407269 -4.286445
v 3.349505 -0.025007 -4.286445
v 3.349505 2.407269 4.286445
v 3.349505 -0.025007 4.286445
v -3.349505 2.407269 -4.286445
v -3.349505 -0.025007 -4.286445
v -3.349505 2.407269 4.286445
v -3.349505 -0.025007 4.286445
v -1.264651 -0.025007 -4.286445
v -1.264651 2.407269 4.286445
v -1.264651 -0.025007 4.286445
v -1.264651 2.407269 -4.286445
v 1.173421 -0.025007 4.286445
v 1.173421 2.407269 -4.286445
v 1.173421 -0.025007 -4.286445
v 1.173421 2.407269 4.286445
v 3.254770 2.407269 -4.165210
v 3.272152 0.003078 -4.187454
v 3.254770 2.407269 4.165210
v 3.272152 0.003078 4.187454
v -3.254770 2.407269 -4.165210
v -3.272152 0.003078 -4.187454
v -3.254770 2.407269 4.165210
v -3.272152 0.003078 4.187454
v -1.264651 0.009389 -4.165210
v -1.264651 2.407269 4.114987
v -1.264651 0.018502 4.209771
v -1.264651 2.407269 -4.114987
v 1.173421 0.018502 4.209771
v 1.173421 2.407269 -4.114987
v 1.173421 0.009389 -4.165210
v 1.173421 2.407269 4.114987
vt 0.375000 0.922195
vt 0.625000 0.922195
vt 0.625000 1.000000
vt 0.375000 1.000000
vt 0.375000 0.000000
vt 0.625000 0.000000
vt 0.625000 0.250000
vt 0.375000 0.250000
vt 0.293791 0.500000
vt 0.375000 0.500000
vt 0.375000 0.750000
vt 0.293791 0.750000
vt 0.625000 0.500000
vt 0.625000 0.750000
vt 0.375000 0.418791
vt 0.625000 0.418791
vt 0.625000 0.327805
vt 0.375000 0.327805
vt 0.125000 0.500000
vt 0.202805 0.500000
vt 0.202805 0.750000
vt 0.125000 0.750000
vt 0.625000 0.831209
vt 0.375000 0.831209
vt 0.375000 0.922195
vt 0.375000 1.000000
vt 0.625000 1.000000
vt 0.625000 0.922195
vt 0.375000 0.000000
vt 0.375000 0.250000
vt 0.625000 0.250000
vt 0.625000 0.000000
vt 0.293791 0.500000
vt 0.293791 0.750000
vt 0.375000 0.750000
vt 0.375000 0.500000
vt 0.625000 0.750000
vt 0.625000 0.500000
vt 0.375000 0.418791
vt 0.625000 0.418791
vt 0.375000 0.327805
vt 0.625000 0.327805
vt 0.125000 0.500000
vt 0.125000 0.750000
vt 0.202805 0.750000
vt 0.202805 0.500000
vt 0.375000 0.831209
vt 0.625000 0.831209
vn 0.0000 0.0000 1.0000
vn -1.0000 0.0000 0.0000
vn 0.0000 -1.0000 0.0000
vn 1.0000 0.0000 0.0000
vn 0.0000 0.0000 -1.0000
vn -0.0069 -0.0244 -0.9997
vn 1.0000 -0.0072 0.0000
vn 0.0052 1.0000 -0.0005
vn -1.0000 -0.0072 0.0000
vn 0.0173 -0.0150 0.9997
vn -0.0181 -0.0150 0.9997
vn -0.0054 1.0000 -0.0005
vn 0.0066 -0.0244 -0.9997
vn 0.0000 -0.0209 0.9998
vn 0.0000 1.0000 -0.0011
vn 0.0000 1.0000 0.0000
vn 0.0000 0.8697 0.4935
usemtl Material
s off
f 11/1/1 10/2/1 7/3/1 8/4/1
f 8/5/2 7/6/2 5/7/2 6/8/2
f 15/9/3 2/10/3 4/11/3 13/12/3
f 2/10/4 1/13/4 3/14/4 4/11/4
f 15/15/5 14/16/5 1/13/5 2/10/5
f 6/8/5 5/7/5 12/17/5 9/18/5
f 6/19/3 9/20/3 11/21/3 8/22/3
f 4/11/1 3/14/1 16/23/1 13/24/1
f 9/18/5 12/17/5 14/16/5 15/15/5
f 9/20/3 15/9/3 13/12/3 11/21/3
f 27/25/6 24/26/6 23/27/6 26/28/6
f 24/29/7 22/30/7 21/31/7 23/32/7
f 31/33/8 29/34/8 20/35/8 18/36/8
f 18/36/9 20/35/9 19/37/9 17/38/9
f 31/39/10 18/36/10 17/38/10 30/40/10
f 22/30/11 25/41/11 28/42/11 21/31/11
f 22/43/12 24/44/12 27/45/12 25/46/12
f 20/35/13 29/47/13 32/48/13 19/37/13
f 25/41/14 31/39/14 30/40/14 28/42/14
f 25/46/15 27/45/15 29/34/15 31/33/15
f 7/3/16 10/2/16 26/28/16 23/27/16
f 3/14/16 1/13/16 17/38/16 19/37/16
f 5/7/16 7/6/16 23/32/16 21/31/16
f 1/13/16 14/16/16 30/40/16 17/38/16
f 12/17/16 5/7/16 21/31/16 28/42/16
f 10/2/4 11/1/4 27/25/4 26/28/4
f 11/21/17 13/12/17 29/34/17 27/45/17
f 14/16/16 12/17/16 28/42/16 30/40/16
f 16/23/16 3/14/16 19/37/16 32/48/16
f 13/24/2 16/23/2 32/48/2 29/47/2
o Cube.001
v -3.348626 2.408241 4.259408
v 0.387182 6.330548 4.259408
v -3.348626 2.408241 -4.278925
v 0.387182 6.330548 -4.278925
v -3.209773 2.275990 4.259408
v 0.526035 6.198298 4.259408
v -3.209773 2.275990 -4.278925
v 0.526035 6.198298 -4.278925
v -3.348626 2.408241 4.136279
v 0.387182 6.330548 4.136279
v -3.209773 2.275990 4.136279
v 0.526035 6.198298 4.136279
v 3.337961 2.412604 4.136279
v 3.337961 2.412604 4.259408
v 0.159814 2.395524 4.259408
v 0.159814 2.395524 4.136279
v 0.159779 5.811809 4.259408
v 0.159779 5.811809 4.136279
v -3.197409 2.264214 4.259408
v -3.197409 2.264214 4.136279
v 1.896547 3.954259 4.259408
v -1.362801 2.391273 4.259408
v 1.896547 3.954259 4.136279
v -1.362801 2.391273 4.136279
vt 0.375000 0.003605
vt 0.625000 0.003605
vt 0.625000 0.250000
vt 0.375000 0.250000
vt 0.625000 0.500000
vt 0.375000 0.500000
vt 0.625000 0.746395
vt 0.625000 0.750000
vt 0.625000 0.750000
vt 0.625000 0.746395
vt 0.375000 0.750000
vt 0.625000 0.750000
vt 0.625000 1.000000
vt 0.375000 1.000000
vt 0.125000 0.746395
vt 0.375000 0.746395
vt 0.125000 0.750000
vt 0.625000 0.746395
vt 0.875000 0.746395
vt 0.875000 0.750000
vt 0.875000 0.500000
vt 0.125000 0.500000
vt 0.375000 0.000000
vt 0.625000 0.000000
vt 0.375000 0.746395
vt 0.375000 0.750000
vt 0.375000 0.750000
vt 0.375000 0.746395
vt 0.375000 0.746395
vt 0.375000 0.750000
vt 0.625000 0.746395
vt 0.625000 0.750000
vn -0.7241 0.6897 0.0000
vn -0.0000 0.0000 -1.0000
vn 0.7305 0.6830 0.0000
vn -0.0000 0.0000 1.0000
vn -0.6897 -0.7241 0.0000
vn 0.6897 0.7241 0.0000
vn 0.7241 -0.6897 0.0000
vn 0.0054 -1.0000 0.0000
vn 0.0028 -1.0000 0.0000
vn 0.7259 -0.6879 0.0000
vn 0.0691 -0.9976 0.0000
usemtl None
s off
f 41/49/18 42/50/18 36/51/18 35/52/18
f 35/52/19 36/51/19 40/53/19 39/54/19
f 55/55/20 53/56/20 46/57/20 45/58/20
f 37/59/21 38/60/21 34/61/21 33/62/21
f 41/63/22 43/64/22 37/59/22 33/65/22
f 44/66/23 42/67/23 34/68/23 38/60/23
f 40/53/23 36/69/23 42/67/23 44/66/23
f 35/70/22 39/54/22 43/64/22 41/63/22
f 39/54/24 40/53/24 44/66/24 43/64/24
f 33/71/18 34/72/18 42/50/18 41/49/18
f 48/73/25 45/58/25 46/57/25 47/74/25
f 53/56/21 54/75/21 47/74/21 46/57/21
f 56/76/19 55/55/19 45/58/19 48/73/19
f 54/75/26 56/76/26 48/73/26 47/74/26
f 37/59/22 43/64/22 52/77/22 51/78/22
f 43/64/19 44/66/19 50/79/19 52/77/19
f 38/60/21 37/59/21 51/78/21 49/80/21
f 44/66/27 38/60/27 49/80/27 50/79/27
f 51/78/28 52/77/28 56/76/28 54/75/28
f 52/77/19 50/79/19 55/55/19 56/76/19
f 49/80/21 51/78/21 54/75/21 53/56/21
f 50/79/20 49/80/20 53/56/20 55/55/20
o Cube.002
v -0.345832 6.365558 4.284443
v 3.358085 2.413121 4.284443
v -0.345832 6.365558 -4.253891
v 3.358085 2.413121 -4.253891
v -0.485752 6.234436 4.284443
v 3.218165 2.281999 4.284443
v -0.485752 6.234436 -4.253891
v 3.218165 2.281999 -4.253891
v -0.345832 6.365558 -4.171708
v 3.358085 2.413121 -4.171708
v -0.485752 6.234436 -4.171708
v 3.218165 2.281999 -4.171708
v -0.203921 2.374278 -4.253891
v -3.324931 2.405504 -4.253891
v -3.324931 2.405504 -4.171708
v -0.203921 2.374278 -4.171708
v 3.214032 2.278126 -4.253891
v -0.006257 5.718859 -4.253891
v 3.214032 2.278126 -4.171708
v -0.006257 5.718859 -4.171708
vt 0.375000 0.247594
vt 0.625000 0.247594
vt 0.625000 0.250000
vt 0.375000 0.250000
vt 0.625000 0.500000
vt 0.375000 0.500000
vt 0.375000 0.502406
vt 0.625000 0.502406
vt 0.625000 0.750000
vt 0.375000 0.750000
vt 0.625000 1.000000
vt 0.375000 1.000000
vt 0.125000 0.502406
vt 0.125000 0.750000
vt 0.875000 0.502406
vt 0.875000 0.750000
vt 0.875000 0.500000
vt 0.125000 0.500000
vt 0.375048 0.500000
vt 0.625000 0.500000
vt 0.625000 0.500000
vt 0.414344 0.500000
vt 0.375000 0.000000
vt 0.625000 0.000000
vt 0.625000 0.502406
vt 0.414344 0.502406
vt 0.625000 0.502406
vt 0.375048 0.502406
vn 0.7297 0.6838 0.0000
vn 0.0000 0.0000 -1.0000
vn -0.7297 -0.6838 0.0000
vn -0.0000 0.0000 1.0000
vn -0.6838 0.7297 0.0000
vn 0.6838 -0.7297 0.0000
vn -0.0100 -0.9999 0.0000
vn -0.0281 -0.9996 0.0000
vn -0.7065 0.7077 0.0000
vn -0.7323 -0.6810 0.0000
usemtl None
s off
f 65/81/29 66/82/29 60/83/29 59/84/29
f 59/84/30 60/83/30 64/85/30 63/86/30
f 67/87/31 68/88/31 62/89/31 61/90/31
f 61/90/32 62/89/32 58/91/32 57/92/32
f 65/93/33 67/87/33 61/90/33 57/94/33
f 68/88/34 66/95/34 58/96/34 62/89/34
f 64/85/34 60/97/34 66/95/34 68/88/34
f 59/98/33 63/86/33 67/87/33 65/93/33
f 74/99/30 73/100/30 69/101/30 70/102/30
f 57/103/29 58/104/29 66/82/29 65/81/29
f 70/102/35 69/101/35 72/105/35 71/106/35
f 73/100/36 75/107/36 72/105/36 69/101/36
f 76/108/37 74/99/37 70/102/37 71/106/37
f 75/107/32 76/108/32 71/106/32 72/105/32
f 68/88/32 67/87/32 76/108/32 75/107/32
f 67/87/38 63/86/38 74/99/38 76/108/38
f 64/85/34 68/88/34 75/107/34 73/100/34
f 63/86/30 64/85/30 73/100/30 74/99/30
o Cube.003
v -0.124542 2.985555 4.299813
v -0.124542 4.314283 4.299813
v -0.124542 2.985555 4.204057
v -0.124542 4.314283 4.204057
v 0.124542 2.985555 4.299813
v 0.124542 4.314283 4.299813
v 0.124542 2.985555 4.204057
v 0.124542 4.314283 4.204057
vt 0.375000 0.000000
vt 0.625000 0.000000
vt 0.625000 0.250000
vt 0.375000 0.250000
vt 0.625000 0.500000
vt 0.375000 0.500000
vt 0.625000 0.750000
vt 0.375000 0.750000
vt 0.625000 1.000000
vt 0.375000 1.000000
vt 0.125000 0.500000
vt 0.125000 0.750000
vt 0.875000 0.500000
vt 0.875000 0.750000
vn -1.0000 0.0000 0.0000
vn 0.0000 0.0000 -1.0000
vn 1.0000 0.0000 0.0000
vn 0.0000 0.0000 1.0000
vn 0.0000 -1.0000 0.0000
vn 0.0000 1.0000 0.0000
usemtl None
s off
f 77/109/39 78/110/39 80/111/39 79/112/39
f 79/112/40 80/111/40 84/113/40 83/114/40
f 83/114/41 84/113/41 82/115/41 81/116/41
f 81/116/42 82/115/42 78/117/42 77/118/42
f 79/119/43 83/114/43 81/116/43 77/120/43
f 84/113/44 80/121/44 78/122/44 82/115/44
o Cube.004
v -0.663042 3.781317 4.299813
v 0.665615 3.767593 4.299813
v -0.663042 3.781317 4.204057
v 0.665615 3.767593 4.204057
v -0.665615 3.532246 4.299813
v 0.663042 3.518522 4.299813
v -0.665615 3.532246 4.204057
v 0.663042 3.518522 4.204057
vt 0.375000 0.000000
vt 0.625000 0.000000
vt 0.625000 0.250000
vt 0.375000 0.250000
vt 0.625000 0.500000
vt 0.375000 0.500000
vt 0.625000 0.750000
vt 0.375000 0.750000
vt 0.625000 1.000000
vt 0.375000 1.000000
vt 0.125000 0.500000
vt 0.125000 0.750000
vt 0.875000 0.500000
vt 0.875000 0.750000
vn 0.0103 0.9999 0.0000
vn 0.0000 0.0000 -1.0000
vn -0.0103 -0.9999 0.0000
vn -0.0000 0.0000 1.0000
vn -0.9999 0.0103 0.0000
vn 0.9999 -0.0103 0.0000
usemtl None
s off
f 85/123/45 86/124/45 88/125/45 87/126/45
f 87/126/46 88/125/46 92/127/46 91/128/46
f 91/128/47 92/127/47 90/129/47 89/130/47
f 89/130/48 90/129/48 86/131/48 85/132/48
f 87/133/49 91/128/49 89/130/49 85/134/49
f 92/127/50 88/135/50 86/136/50 90/129/50
