# Blender v2.81 (sub 16) OBJ File: ''
# www.blender.org
mtllib untitled.mtl
o Cube_Cube.003
v -1.336524 -0.005402 0.941941
v -0.659051 2.433530 0.855086
v -1.336524 -0.005402 -0.941941
v -1.030497 2.307087 -0.838665
v 1.144626 0.005801 1.008061
v 1.030497 2.307087 0.838665
v 1.228735 -0.067986 -1.000000
v 1.030497 2.307087 -0.838665
v -1.336524 1.197098 0.941941
v -1.336524 1.996048 -0.941941
v 1.228735 2.087924 -1.000000
v 1.144626 1.981007 1.008061
v -0.913468 2.185217 0.919557
v -1.100469 2.271518 -0.895611
v 1.100469 2.271518 -0.895611
v 1.100469 2.271518 0.895611
v -1.319426 -0.067986 -1.000000
v -1.235318 0.005801 1.008061
v -1.235318 1.188806 1.008061
v -1.319426 2.087924 -1.000000
v -1.319426 -0.067986 1.000000
v -1.319426 1.239729 1.000000
v 1.228735 2.087924 1.000000
v 1.228735 -0.067986 1.000000
vt 0.386098 0.007257
vt 0.613582 0.007257
vt 0.616829 0.242743
vt 0.382900 0.242743
vt 0.375000 0.250000
vt 0.625000 0.250000
vt 0.625000 0.500000
vt 0.375000 0.500000
vt 0.625000 0.750000
vt 0.375000 0.750000
vt 0.384303 0.758252
vt 0.615406 0.758252
vt 0.611564 0.991748
vt 0.388092 0.991748
vt 0.125000 0.500000
vt 0.125000 0.750000
vt 0.645167 0.520167
vt 0.854833 0.520167
vt 0.854833 0.729833
vt 0.645167 0.729833
vt 0.861951 0.736951
vt 0.861951 0.513049
vt 0.875000 0.500000
vt 0.875000 0.750000
vt 0.638049 0.513049
vt 0.638049 0.736951
vt 0.375000 0.000000
vt 0.625000 0.000000
vt 0.625000 1.000000
vt 0.375000 1.000000
vn -1.0000 0.0000 0.0000
vn 0.0000 0.0000 -1.0000
vn 1.0000 0.0000 0.0000
vn -0.0000 0.0000 1.0000
vn 0.0000 -1.0000 0.0000
vn 0.0335 0.9986 -0.0411
vn -0.8652 0.4755 0.1589
vn 0.0000 0.4943 -0.8693
vn 0.8198 0.5727 0.0000
vn -0.0293 0.1685 0.9853
vn -0.6543 0.7502 0.0955
vn 0.0000 0.8481 -0.5298
vn 0.4532 0.8914 0.0000
vn 0.0142 0.3854 0.9227
vn -0.9646 -0.2635 0.0000
vn -0.9593 0.0000 0.2825
vn -0.9639 0.2451 0.1039
vn -0.9593 0.0000 -0.2825
vn -0.0954 0.0000 0.9954
vn 0.0954 0.0000 0.9954
vn 0.0000 -0.1086 0.9941
vn -0.0338 0.1015 0.9943
usemtl None
s off
f 1/1/1 9/2/1 10/3/1 3/4/1
f 17/5/2 20/6/2 11/7/2 7/8/2
f 7/8/3 11/7/3 23/9/3 24/10/3
f 5/11/4 12/12/4 19/13/4 18/14/4
f 17/15/5 7/8/5 24/10/5 21/16/5
f 8/17/6 4/18/6 2/19/6 6/20/6
f 13/21/7 14/22/7 20/23/7 22/24/7
f 14/22/8 15/25/8 11/7/8 20/23/8
f 15/25/9 16/26/9 23/9/9 11/7/9
f 16/26/10 13/21/10 22/24/10 23/9/10
f 2/19/11 4/18/11 14/22/11 13/21/11
f 4/18/12 8/17/12 15/25/12 14/22/12
f 8/17/13 6/20/13 16/26/13 15/25/13
f 6/20/14 2/19/14 13/21/14 16/26/14
f 1/1/15 3/4/15 17/5/15 21/27/15
f 9/2/16 1/1/16 21/27/16 22/28/16
f 10/3/17 9/2/17 22/28/17 20/6/17
f 3/4/18 10/3/18 20/6/18 17/5/18
f 18/14/19 19/13/19 22/29/19 21/30/19
f 12/12/20 5/11/20 24/10/20 23/9/20
f 5/11/21 18/14/21 21/30/21 24/10/21
f 19/13/22 12/12/22 23/9/22 22/29/22
o Cube.001_Cube.004
v 0.778189 1.615283 -0.159821
v 0.728370 4.622536 -0.407259
v -0.993816 1.557485 -1.359263
v -1.066334 4.346169 -1.177087
v 2.313295 2.134801 -2.318682
v 1.736290 4.816529 -1.938965
v 0.485691 2.003391 -3.684244
v 0.158572 4.765068 -3.006897
v 0.595386 3.031413 0.042003
v -1.298074 3.914503 -1.023346
v 0.157953 4.542311 -3.322402
v 2.013027 4.460913 -1.987169
v 0.675553 4.280377 -0.182009
v -1.156077 4.288311 -1.157191
v 0.152001 4.735653 -3.111247
v 1.836848 4.790609 -1.970801
v -1.028751 1.485476 -1.421912
v 0.898828 1.651076 -0.205698
v 0.718989 3.044247 -0.007146
v -1.356490 4.024395 -1.060071
v 0.852475 1.546837 -0.148540
v 0.653678 3.086875 0.070943
v 2.039179 4.603673 -2.049031
v 2.366918 2.064753 -2.410872
v -1.356490 4.024395 -1.060071
v -1.028751 1.485476 -1.421912
v 0.485691 2.003391 -3.684244
v 0.157953 4.542311 -3.322402
vt 0.386098 0.007257
vt 0.613582 0.007257
vt 0.616829 0.242743
vt 0.382900 0.242743
vt 0.375000 0.250000
vt 0.625000 0.250000
vt 0.625000 0.500000
vt 0.375000 0.500000
vt 0.375000 0.500000
vt 0.625000 0.500000
vt 0.625000 0.750000
vt 0.375000 0.750000
vt 0.384303 0.758252
vt 0.615406 0.758252
vt 0.611564 0.991748
vt 0.388092 0.991748
vt 0.125000 0.500000
vt 0.125000 0.750000
vt 0.645167 0.520167
vt 0.854833 0.520167
vt 0.854833 0.729833
vt 0.645167 0.729833
vt 0.861951 0.736951
vt 0.861951 0.513049
vt 0.875000 0.500000
vt 0.875000 0.750000
vt 0.638049 0.513049
vt 0.638049 0.736951
vt 0.375000 0.250000
vt 0.375000 0.000000
vt 0.625000 0.000000
vt 0.625000 0.250000
vt 0.625000 1.000000
vt 0.375000 1.000000
vn -0.5465 -0.1869 0.8164
vn -0.8278 -0.0270 -0.5603
vn 0.5465 0.1869 -0.8164
vn 0.8278 0.0270 0.5603
vn 0.1268 -0.9820 -0.1400
vn -0.1423 0.9861 0.0853
vn -0.4104 0.2717 0.8705
vn -0.7889 0.4420 -0.4269
vn 0.3938 0.6834 -0.6147
vn 0.7797 0.1779 0.6003
vn -0.3882 0.5782 0.7177
vn -0.5615 0.8050 -0.1916
vn 0.1566 0.9480 -0.2771
vn 0.7312 0.3892 0.5602
vn -0.5000 -0.4176 0.7587
vn -0.3014 -0.1726 0.9378
vn -0.4753 0.0410 0.8788
vn -0.7506 -0.1872 0.6337
vn 0.7693 0.0082 0.6389
vn 0.8781 0.0455 0.4762
vn 0.8365 -0.0742 0.5430
vn 0.7919 0.1148 0.5997
vn 0.0000 0.0000 1.0000
usemtl None
s off
f 25/31/23 33/32/23 34/33/23 27/34/23
f 41/35/24 44/36/24 35/37/24 31/38/24
f 51/39/25 52/40/25 47/41/25 48/42/25
f 29/43/26 36/44/26 43/45/26 42/46/26
f 50/47/27 51/39/27 48/42/27 45/48/27
f 32/49/28 28/50/28 26/51/28 30/52/28
f 37/53/29 38/54/29 49/55/29 46/56/29
f 38/54/30 39/57/30 52/40/30 49/55/30
f 39/57/31 40/58/31 47/41/31 52/40/31
f 40/58/32 37/53/32 46/56/32 47/41/32
f 26/51/33 28/50/33 38/54/33 37/53/33
f 28/50/34 32/49/34 39/57/34 38/54/34
f 32/49/35 30/52/35 40/58/35 39/57/35
f 30/52/36 26/51/36 37/53/36 40/58/36
f 25/31/37 27/34/37 50/59/37 45/60/37
f 33/32/38 25/31/38 45/60/38 46/61/38
f 34/33/39 33/32/39 46/61/39 49/62/39
f 27/34/40 34/33/40 49/62/40 50/59/40
f 42/46/41 43/45/41 46/63/41 45/64/41
f 36/44/42 29/43/42 48/42/42 47/41/42
f 29/43/43 42/46/43 45/64/43 48/42/43
f 43/45/44 36/44/44 47/41/44 46/63/44
f 44/36/45 41/35/45 50/59/45 49/62/45
f 41/35/45 31/38/45 51/39/45 50/59/45
f 35/37/45 44/36/45 49/62/45 52/40/45
f 31/38/45 35/37/45 52/40/45 51/39/45
o Cube.002_Cube.005
v 1.267815 0.637301 0.902417
v 1.267815 2.350005 0.902417
v 1.068050 -0.087182 -1.097583
v 1.235743 3.048573 -1.098278
v 3.173522 0.637301 0.902417
v 2.902232 2.104012 0.902417
v 3.373286 -0.087182 -1.097583
v 3.205594 2.822149 -1.098278
v 1.068050 -0.087182 0.902417
v 1.235743 3.048573 0.610746
v 3.023989 2.822149 0.610746
v 3.373286 -0.087182 0.902417
v 1.068050 2.755963 0.902417
v 1.068050 2.755963 -1.097583
v 3.373286 2.529539 -1.097583
v 3.310776 2.082384 0.812719
v 1.320613 -0.215036 -0.209337
v 1.320613 4.855571 -0.209337
v 1.147649 -0.370483 -2.262101
v 1.332021 6.461681 -1.956221
v 3.760418 -0.215036 -0.209337
v 2.790955 5.779533 -0.209337
v 4.359648 -0.370483 -2.262101
v 3.502232 6.410101 -1.968982
v 1.147649 -0.370483 -0.262101
v 1.345661 5.170524 -0.572646
v 2.789127 6.232445 -0.559572
v 3.960339 -0.370483 -0.262101
v 1.147649 4.936557 -0.262101
v 1.147649 6.296576 -2.262101
v 3.762904 6.296576 -2.262101
v 2.921767 6.051413 -0.262101
v -1.358919 3.443945 -1.857635
v -0.244142 4.475497 -1.357389
v -2.286253 3.627221 -5.531780
v 1.735732 4.422452 -4.826619
v -0.958966 -2.323496 -1.482948
v 0.940802 -1.596723 -0.423056
v -0.645013 -2.111177 -6.159265
v 3.255449 -1.605377 -4.503977
v -2.515354 3.622142 -5.681736
v -3.419238 -0.826200 -2.700170
v -0.022959 4.533364 -0.982687
v 2.291688 4.524710 -5.063609
v -2.273522 3.900577 -5.995645
v -3.327292 -1.818496 -2.583640
v -1.923465 3.985930 -5.572678
v -0.911270 3.759326 -1.611089
v 3.820304 -0.129705 -0.423472
v 3.820304 4.250168 -0.423472
v 2.951122 -0.127268 -2.785254
v 3.158338 4.798450 -2.943853
v 5.833784 -0.129705 -1.034016
v 5.833784 4.250168 -1.034016
v 5.286600 -0.127268 -3.493438
v 5.167366 4.798450 -3.553047
v 3.659305 -0.127268 -0.449777
v 3.778539 4.798450 -0.898528
v 5.787567 4.798450 -1.507722
v 5.994783 -0.127268 -1.157960
v 3.659305 4.559159 -0.703957
v 2.951122 4.559159 -3.039435
v 5.286600 4.559159 -3.747618
v 5.994783 4.559159 -1.412140
v -0.755991 -0.320002 -2.671923
v -0.755991 5.681462 -2.671923
v -0.755991 -0.320002 -8.695126
v -0.755991 5.681462 -8.695126
v 5.873016 -0.633773 -2.369021
v 3.122645 8.749711 -4.264108
v 5.873016 -0.633773 -8.998027
v 5.498131 8.886533 -8.672780
v -0.755991 -0.633773 -8.998027
v -0.552603 -0.499698 -2.544752
v 1.359584 9.081926 -4.637321
v 0.232804 9.249407 -9.327046
v -0.275019 6.263898 -2.715334
v -0.755991 5.995233 -8.998027
v 5.873016 5.995233 -8.998027
v 5.511255 6.138297 -2.563942
v 5.873016 5.995233 -2.458489
v -0.552603 6.129309 -2.634220
v 3.240096 8.869035 -4.339788
v 1.253943 9.249407 -4.751465
vt 0.375000 0.000000
vt 0.625000 0.000000
vt 0.625000 0.250000
vt 0.375000 0.250000
vt 0.625000 0.500000
vt 0.375000 0.500000
vt 0.625000 0.750000
vt 0.375000 0.750000
vt 0.396664 0.771664
vt 0.603336 0.771664
vt 0.603336 0.978336
vt 0.396664 0.978336
vt 0.125000 0.500000
vt 0.125000 0.750000
vt 0.643186 0.518186
vt 0.856814 0.518186
vt 0.856814 0.731814
vt 0.643186 0.731814
vt 0.625000 1.000000
vt 0.375000 1.000000
vt 0.875000 0.500000
vt 0.875000 0.750000
vt 0.375000 0.000000
vt 0.625000 0.000000
vt 0.625000 0.250000
vt 0.375000 0.250000
vt 0.625000 0.500000
vt 0.375000 0.500000
vt 0.625000 0.750000
vt 0.375000 0.750000
vt 0.381333 0.766030
vt 0.618037 0.771899
vt 0.617195 0.977613
vt 0.381967 0.984001
vt 0.125000 0.500000
vt 0.125000 0.750000
vt 0.635942 0.511036
vt 0.864312 0.509971
vt 0.862485 0.739812
vt 0.637949 0.738593
vt 0.625000 1.000000
vt 0.375000 1.000000
vt 0.875000 0.500000
vt 0.875000 0.750000
vt 0.407732 0.018650
vt 0.591863 0.019255
vt 0.602063 0.230870
vt 0.397792 0.231337
vt 0.375000 0.250000
vt 0.625000 0.250000
vt 0.625000 0.500000
vt 0.375000 0.500000
vt 0.625000 0.750000
vt 0.375000 0.750000
vt 0.625000 1.000000
vt 0.375000 1.000000
vt 0.125000 0.500000
vt 0.125000 0.750000
vt 0.875000 0.500000
vt 0.875000 0.750000
vt 0.405717 0.029363
vt 0.389605 0.225102
vt 0.382485 0.233079
vt 0.376852 0.013167
vt 0.375000 0.000000
vt 0.625000 0.000000
vt 0.375000 0.000000
vt 0.625000 0.000000
vt 0.625000 0.250000
vt 0.375000 0.250000
vt 0.625000 0.500000
vt 0.375000 0.500000
vt 0.625000 0.750000
vt 0.375000 0.750000
vt 0.383177 0.767234
vt 0.616823 0.767234
vt 0.616823 0.982766
vt 0.383177 0.982766
vt 0.125000 0.500000
vt 0.125000 0.750000
vt 0.642472 0.515530
vt 0.857528 0.515530
vt 0.857528 0.734470
vt 0.642472 0.734470
vt 0.625000 1.000000
vt 0.375000 1.000000
vt 0.875000 0.500000
vt 0.875000 0.750000
vt 0.386833 0.011423
vt 0.613167 0.011423
vt 0.613167 0.238577
vt 0.386833 0.238577
vt 0.375000 0.250000
vt 0.625000 0.250000
vt 0.625000 0.500000
vt 0.375000 0.500000
vt 0.625000 0.750000
vt 0.375000 0.750000
vt 0.625000 1.000000
vt 0.375000 1.000000
vt 0.125000 0.500000
vt 0.125000 0.750000
vt 0.639138 0.512266
vt 0.860862 0.512266
vt 0.860862 0.737734
vt 0.639138 0.737734
vt 0.375000 0.000000
vt 0.625000 0.000000
vt 0.875000 0.500000
vt 0.875000 0.750000
vt 0.657455 0.738377
vt 0.845017 0.738272
vt 0.865682 0.749458
vt 0.635377 0.749400
vn -1.0000 0.0000 0.0000
vn 0.0000 0.0000 -1.0000
vn 0.9998 0.0134 0.0175
vn 0.0000 0.0000 1.0000
vn 0.0000 -1.0000 0.0000
vn 0.1196 0.9928 0.0064
vn 0.1962 0.0422 0.9797
vn 0.0681 0.1915 0.9791
vn -0.8676 0.4972 0.0000
vn -0.0003 -0.0024 -1.0000
vn 0.9011 0.4188 0.1125
vn 0.1179 0.4394 0.8905
vn 0.9464 0.1182 0.3007
vn -0.2466 0.8818 0.4020
vn -0.2918 0.0000 0.9565
vn 0.2887 0.0467 0.9563
vn 0.0000 -0.3214 0.9469
vn -0.1661 0.2643 0.9500
vn -0.6305 0.6097 0.4803
vn 0.0087 0.9071 -0.4208
vn 0.5594 0.7521 0.3483
vn -0.5016 0.7387 0.4503
vn -0.2551 0.9668 -0.0106
vn 0.2884 0.0304 -0.9570
vn 0.1921 -0.9808 0.0349
vn -0.4515 -0.0035 0.8923
vn -0.7095 -0.5057 -0.4908
vn 0.8560 0.1789 0.4851
vn -0.8715 0.4012 0.2822
vn -0.6717 0.1895 0.7161
vn -0.1816 0.9771 -0.1113
vn -0.1252 0.9920 -0.0136
vn -0.7900 -0.2101 -0.5760
vn -0.6561 0.7261 0.2056
vn -0.4979 0.0669 0.8647
vn -0.5302 0.7368 0.4196
vn -0.9569 0.0157 0.2901
vn -0.2898 -0.0518 -0.9557
vn 0.9569 -0.0157 -0.2901
vn 0.2902 0.0000 0.9570
vn 0.0000 1.0000 0.0000
vn -0.6792 0.0206 0.7337
vn 0.8373 0.0153 0.5465
vn -0.0098 -0.9994 -0.0324
vn 0.2032 0.7140 0.6700
vn -0.7793 0.5804 0.2363
vn -0.2451 0.5352 -0.8084
vn 0.7793 0.5804 -0.2363
vn 0.2451 0.5352 0.8084
vn 1.0000 -0.0000 0.0000
vn -0.0271 0.0135 0.9995
vn -0.0104 -0.9999 0.0104
vn 0.0997 0.9949 0.0158
vn -0.9220 -0.3868 0.0192
vn -0.3793 0.0066 0.9252
vn -0.9649 0.2622 0.0130
vn -0.8977 0.4302 0.0952
vn 0.0547 -0.0061 -0.9985
vn 0.8520 0.4925 0.1777
vn -0.0244 0.5525 0.8332
vn -0.0105 0.5555 0.8314
vn -0.0689 0.5526 0.8306
vn -0.0217 0.5709 0.8207
vn -0.0265 0.5294 0.8479
usemtl None
s off
f 61/65/46 65/66/46 66/67/46 55/68/46
f 55/68/47 66/67/47 67/69/47 59/70/47
f 59/70/48 67/69/48 68/71/48 64/72/48
f 57/73/49 58/74/49 54/75/49 53/76/49
f 55/77/50 59/70/50 64/72/50 61/78/50
f 60/79/51 56/80/51 62/81/51 63/82/51
f 53/76/49 54/75/49 65/83/49 61/84/49
f 58/74/52 57/73/52 64/72/52 68/71/52
f 57/73/49 53/76/49 61/84/49 64/72/49
f 54/75/53 58/74/53 68/71/53 65/83/53
f 62/81/54 56/80/54 66/85/54 65/86/54
f 56/80/55 60/79/55 67/69/55 66/85/55
f 60/79/56 63/82/56 68/71/56 67/69/56
f 63/82/57 62/81/57 65/86/57 68/71/57
f 77/87/46 81/88/46 82/89/46 71/90/46
f 71/90/47 82/89/47 83/91/47 75/92/47
f 75/92/58 83/91/58 84/93/58 80/94/58
f 73/95/49 74/96/49 70/97/49 69/98/49
f 71/99/50 75/92/50 80/94/50 77/100/50
f 76/101/59 72/102/59 78/103/59 79/104/59
f 69/98/60 70/97/60 81/105/60 77/106/60
f 74/96/61 73/95/61 80/94/61 84/93/61
f 73/95/62 69/98/62 77/106/62 80/94/62
f 70/97/63 74/96/63 84/93/63 81/105/63
f 78/103/64 72/102/64 82/107/64 81/108/64
f 72/102/65 76/101/65 83/91/65 82/107/65
f 76/101/66 79/104/66 84/93/66 83/91/66
f 79/104/67 78/103/67 81/108/67 84/93/67
f 100/109/68 86/110/68 88/111/68 99/112/68
f 97/113/69 96/114/69 92/115/69 91/116/69
f 91/116/70 92/115/70 90/117/70 89/118/70
f 89/118/71 90/117/71 95/119/71 98/120/71
f 97/121/72 91/116/72 89/118/72 98/122/72
f 92/115/73 96/123/73 95/124/73 90/117/73
f 85/125/74 87/126/74 93/127/74 94/128/74
f 86/110/75 100/109/75 98/129/75 95/130/75
f 88/111/76 86/110/76 95/130/76 96/114/76
f 99/112/77 88/111/77 96/114/77 97/113/77
f 94/128/78 93/127/78 97/113/78 98/129/78
f 87/126/79 85/125/79 100/109/79 99/112/79
f 85/125/80 94/128/80 98/129/80 100/109/80
f 93/127/81 87/126/81 99/112/81 97/113/81
f 109/131/82 113/132/82 114/133/82 103/134/82
f 103/134/83 114/133/83 115/135/83 107/136/83
f 107/136/84 115/135/84 116/137/84 112/138/84
f 105/139/85 106/140/85 102/141/85 101/142/85
f 103/143/50 107/136/50 112/138/50 109/144/50
f 108/145/86 104/146/86 110/147/86 111/148/86
f 101/142/87 102/141/87 113/149/87 109/150/87
f 106/140/88 105/139/88 112/138/88 116/137/88
f 105/139/89 101/142/89 109/150/89 112/138/89
f 102/141/90 106/140/90 116/137/90 113/149/90
f 110/147/91 104/146/91 114/151/91 113/152/91
f 104/146/92 108/145/92 115/135/92 114/151/92
f 108/145/93 111/148/93 116/137/93 115/135/93
f 111/148/94 110/147/94 113/152/94 116/137/94
f 117/153/46 118/154/46 120/155/46 119/156/46
f 125/157/47 130/158/47 131/159/47 123/160/47
f 123/160/95 131/159/95 133/161/95 121/162/95
f 121/162/96 133/161/96 134/163/96 126/164/96
f 125/165/97 123/160/97 121/162/97 126/166/97
f 124/167/98 128/168/98 136/169/98 135/170/98
f 117/153/99 119/156/99 125/157/99 126/171/99
f 118/154/100 117/153/100 126/171/100 134/172/100
f 120/155/101 118/154/101 134/172/101 130/158/101
f 119/156/46 120/155/46 130/158/46 125/157/46
f 136/169/102 128/168/102 130/173/102 134/174/102
f 128/168/103 124/167/103 131/159/103 130/173/103
f 124/167/104 135/170/104 133/161/104 131/159/104
f 122/175/105 127/176/105 129/177/105 132/178/105
f 132/178/106 129/177/106 134/174/106 133/161/106
f 127/176/107 122/175/107 135/170/107 136/169/107
f 129/177/108 127/176/108 136/169/108 134/174/108
f 122/175/109 132/178/109 133/161/109 135/170/109
